<svg width="112" height="112" viewBox="0 0 112 112" fill="none" xmlns="http://www.w3.org/2000/svg">
<g clip-path="url(#clip0)"><path d="M40.9891 43.5688C40.9891 42.4711 41.8788 41.5813 42.9766 41.5813 44.0736 41.5813 44.9641 42.4711 44.9641 43.5688V47.5508C44.9641 48.6485 44.0736 49.5383 42.9766 49.5383 41.8788 49.5383 40.9891 48.6486 40.9891 47.5508V43.5688z" stroke="#fff" stroke-width=".4"/><path d="M49.6126 43.5688C49.6126 42.4711 50.5031 41.5813 51.6001 41.5813 52.6979 41.5813 53.5876 42.4711 53.5876 43.5688V47.5508C53.5876 48.6486 52.6979 49.5383 51.6001 49.5383 50.5031 49.5383 49.6126 48.6485 49.6126 47.5508V43.5688z" stroke="#fff" stroke-width=".4"/><path d="M62.2121 47.5508C62.2121 48.6486 61.3224 49.5383 60.2246 49.5383 59.1268 49.5383 58.2371 48.6486 58.2371 47.5508V43.5688C58.2371 42.4711 59.1268 41.5813 60.2246 41.5813 61.3224 41.5813 62.2121 42.4711 62.2121 43.5688V47.5508z" stroke="#fff" stroke-width=".4"/><path d="M70.8356 47.5508C70.8356 48.6486 69.9459 49.5383 68.8481 49.5383 67.7512 49.5383 66.8606 48.6485 66.8606 47.5508V43.5688C66.8606 42.4711 67.7512 41.5813 68.8481 41.5813 69.9459 41.5813 70.8356 42.4711 70.8356 43.5688V47.5508z" stroke="#fff" stroke-width=".4"/><mask id="path-6-inside-1" fill="#fff"><path d="M109.812 52.1266H102.939C101.732 52.1266 100.751 53.1058 100.751 54.3141V54.3149C100.751 55.5377 101.756 56.5298 102.983 56.5016H105.222V61.8251H77.7588L66.0762 56.5016H83.2369C84.4614 56.5306 85.468 55.5369 85.468 54.3141 85.468 53.1058 84.4879 52.1266 83.2805 52.1266H79.9207V39.0913H81.3588C82.5662 39.0913 83.5463 38.1121 83.5463 36.9038 83.5463 35.6956 82.5662 34.7163 81.3588 34.7163H79.8207C79.3191 29.1288 76.8983 23.9506 72.8771 19.9524 69.4677 16.5618 65.2097 14.3179 60.575 13.4138 61.1757 13.0242 61.5747 12.3483 61.5747 11.5792 61.5747 10.371 60.5955 9.39172 59.3872 9.39172H58.0764V2.40625C58.0764 1.198 57.0972.21875 55.8889.21875 54.6815.21875 53.7014 1.198 53.7014 2.40625V9.39087H52.3915C51.1832 9.39087 50.204 10.3701 50.204 11.5784 50.204 12.3483 50.6022 13.0242 51.2037 13.4138 46.569 14.3179 42.311 16.5618 38.9016 19.9524 34.8804 23.9506 32.4596 29.1288 31.958 34.7163H30.4199C29.2117 34.7163 28.2324 35.6956 28.2324 36.9038 28.2324 38.1121 29.2117 39.0913 30.4199 39.0913H31.858V52.1266H2.1875C.979248 52.1266.0 53.1058.0 54.3141.0 55.5223.979248 56.5016 2.1875 56.5016H2.40283V64.0126C2.40283 65.22 3.38208 66.2001 4.59033 66.2001H7.68188V109.874C7.68188 111.082 8.66113 112.062 9.86938 112.062H102.129C103.337 112.062 104.316 111.082 104.316 109.874V66.2001H107.41C108.618 66.2001 109.597 65.2208 109.597 64.0126V56.5016H109.812C111.021 56.5016 112 55.5223 112 54.3141 112 53.1058 111.021 52.1266 109.812 52.1266zM31.0258 68.0979 35.6229 66.0035H35.6238L55.9991 56.7186 76.3643 65.9976C76.3677 65.9993 76.3711 66.0018 76.3754 66.0035L80.9725 68.0979V70.6511H62.4121V68.5892C62.4121 65.0311 59.5171 62.1361 55.9581 62.1361 52.3992 62.1361 49.5042 65.0311 49.5042 68.5892V70.6511H31.0258V68.0979zM58.0371 70.6503H53.8792V68.5892C53.8792 67.4434 54.8123 66.5103 55.9581 66.5103 57.1049 66.5103 58.0371 67.4434 58.0371 68.5892V70.6503zM41.9863 23.0542C45.694 19.3679 50.6312 17.3385 55.8898 17.3385 61.1475 17.3385 66.0856 19.3679 69.7932 23.0542 72.9813 26.2252 74.939 30.3037 75.426 34.7163H36.3535C36.8397 30.3037 38.7974 26.2252 41.9863 23.0542zM36.2339 39.0913H75.5457V52.1266H36.2339V39.0913zM6.77783 56.5016H45.923L34.2404 61.8251H6.77783V56.5016zM12.0569 66.2001H26.7063C26.6978 66.2385 26.6926 66.2778 26.6858 66.3163 26.6815 66.3445 26.6755 66.3727 26.6713 66.4017 26.6584 66.4966 26.6508 66.5931 26.6508 66.6906V72.8378C26.6508 74.046 27.63 75.0253 28.8383 75.0253H35.975V107.687H12.0569V66.2001zM40.35 75.0261H71.6483V107.687H63.6443V100.851C63.6443 96.6132 60.1964 93.1653 55.9581 93.1653 51.7198 93.1653 48.272 96.6132 48.272 100.851V107.687H40.3491V75.0261H40.35zM52.647 107.687V100.851C52.647 99.0254 54.1329 97.5403 55.9581 97.5403 57.7842 97.5403 59.2693 99.0254 59.2693 100.851V107.687H52.647zm47.2944.0H76.0233V75.0261H83.16C84.3683 75.0261 85.3475 74.046 85.3475 72.8386V66.2001H99.9414V107.687z"/></mask><path d="M109.812 52.1266H102.939C101.732 52.1266 100.751 53.1058 100.751 54.3141V54.3149C100.751 55.5377 101.756 56.5298 102.983 56.5016H105.222V61.8251H77.7588L66.0762 56.5016H83.2369C84.4614 56.5306 85.468 55.5369 85.468 54.3141 85.468 53.1058 84.4879 52.1266 83.2805 52.1266H79.9207V39.0913H81.3588C82.5662 39.0913 83.5463 38.1121 83.5463 36.9038 83.5463 35.6956 82.5662 34.7163 81.3588 34.7163H79.8207C79.3191 29.1288 76.8983 23.9506 72.8771 19.9524 69.4677 16.5618 65.2097 14.3179 60.575 13.4138 61.1757 13.0242 61.5747 12.3483 61.5747 11.5792 61.5747 10.371 60.5955 9.39172 59.3872 9.39172H58.0764V2.40625C58.0764 1.198 57.0972.21875 55.8889.21875 54.6815.21875 53.7014 1.198 53.7014 2.40625V9.39087H52.3915C51.1832 9.39087 50.204 10.3701 50.204 11.5784 50.204 12.3483 50.6022 13.0242 51.2037 13.4138 46.569 14.3179 42.311 16.5618 38.9016 19.9524 34.8804 23.9506 32.4596 29.1288 31.958 34.7163H30.4199C29.2117 34.7163 28.2324 35.6956 28.2324 36.9038 28.2324 38.1121 29.2117 39.0913 30.4199 39.0913H31.858V52.1266H2.1875C.979248 52.1266.0 53.1058.0 54.3141.0 55.5223.979248 56.5016 2.1875 56.5016H2.40283V64.0126C2.40283 65.22 3.38208 66.2001 4.59033 66.2001H7.68188V109.874C7.68188 111.082 8.66113 112.062 9.86938 112.062H102.129C103.337 112.062 104.316 111.082 104.316 109.874V66.2001H107.41C108.618 66.2001 109.597 65.2208 109.597 64.0126V56.5016H109.812C111.021 56.5016 112 55.5223 112 54.3141 112 53.1058 111.021 52.1266 109.812 52.1266zM31.0258 68.0979 35.6229 66.0035H35.6238L55.9991 56.7186 76.3643 65.9976C76.3677 65.9993 76.3711 66.0018 76.3754 66.0035L80.9725 68.0979V70.6511H62.4121V68.5892C62.4121 65.0311 59.5171 62.1361 55.9581 62.1361 52.3992 62.1361 49.5042 65.0311 49.5042 68.5892V70.6511H31.0258V68.0979zM58.0371 70.6503H53.8792V68.5892C53.8792 67.4434 54.8123 66.5103 55.9581 66.5103 57.1049 66.5103 58.0371 67.4434 58.0371 68.5892V70.6503zM41.9863 23.0542C45.694 19.3679 50.6312 17.3385 55.8898 17.3385 61.1475 17.3385 66.0856 19.3679 69.7932 23.0542 72.9813 26.2252 74.939 30.3037 75.426 34.7163H36.3535C36.8397 30.3037 38.7974 26.2252 41.9863 23.0542zM36.2339 39.0913H75.5457V52.1266H36.2339V39.0913zM6.77783 56.5016H45.923L34.2404 61.8251H6.77783V56.5016zM12.0569 66.2001H26.7063C26.6978 66.2385 26.6926 66.2778 26.6858 66.3163 26.6815 66.3445 26.6755 66.3727 26.6713 66.4017 26.6584 66.4966 26.6508 66.5931 26.6508 66.6906V72.8378C26.6508 74.046 27.63 75.0253 28.8383 75.0253H35.975V107.687H12.0569V66.2001zM40.35 75.0261H71.6483V107.687H63.6443V100.851C63.6443 96.6132 60.1964 93.1653 55.9581 93.1653 51.7198 93.1653 48.272 96.6132 48.272 100.851V107.687H40.3491V75.0261H40.35zM52.647 107.687V100.851C52.647 99.0254 54.1329 97.5403 55.9581 97.5403 57.7842 97.5403 59.2693 99.0254 59.2693 100.851V107.687H52.647zm47.2944.0H76.0233V75.0261H83.16C84.3683 75.0261 85.3475 74.046 85.3475 72.8386V66.2001H99.9414V107.687z" stroke="#fff" stroke-width=".8" mask="url(#path-6-inside-1)"/><path d="M81.8279 86.9427V82.7617C81.8279 81.664 82.7184 80.7742 83.8154 80.7742 84.9132 80.7742 85.8029 81.6639 85.8029 82.7617V86.9427C85.8029 88.0405 84.9132 88.9302 83.8154 88.9302 82.7184 88.9302 81.8279 88.0405 81.8279 86.9427z" stroke="#fff" stroke-width=".4"/><path d="M94.8776 86.9427C94.8776 88.0405 93.9879 88.9302 92.8901 88.9302 91.7923 88.9302 90.9026 88.0405 90.9026 86.9427V82.7617C90.9026 81.664 91.7931 80.7742 92.8901 80.7742 93.9879 80.7742 94.8776 81.6639 94.8776 82.7617V86.9427z" stroke="#fff" stroke-width=".4"/><path d="M81.8279 95.0212C81.8279 93.9235 82.7184 93.0337 83.8154 93.0337 84.9132 93.0337 85.8029 93.9234 85.8029 95.0212V99.2023C85.8029 100.3 84.9132 101.19 83.8154 101.19 82.7184 101.19 81.8279 100.3 81.8279 99.2023V95.0212z" stroke="#fff" stroke-width=".4"/><path d="M94.8776 99.2023C94.8776 100.3 93.9879 101.19 92.8901 101.19 91.7924 101.19 90.9026 100.299 90.9026 99.2023V95.0212C90.9026 93.9235 91.7931 93.0337 92.8901 93.0337 93.9879 93.0337 94.8776 93.9234 94.8776 95.0212V99.2023z" stroke="#fff" stroke-width=".4"/><path d="M17.4905 82.7617C17.4905 81.664 18.381 80.7742 19.478 80.7742 20.5758 80.7742 21.4655 81.6639 21.4655 82.7617V86.9427C21.4655 88.0405 20.5758 88.9302 19.478 88.9302 18.381 88.9302 17.4905 88.0405 17.4905 86.9427V82.7617z" stroke="#fff" stroke-width=".4"/><path d="M26.5652 82.7617C26.5652 81.664 27.4557 80.7742 28.5527 80.7742 29.6505 80.7742 30.5402 81.6639 30.5402 82.7617V86.9427C30.5402 88.0405 29.6505 88.9302 28.5527 88.9302 27.4557 88.9302 26.5652 88.0405 26.5652 86.9427V82.7617z" stroke="#fff" stroke-width=".4"/><path d="M17.4905 95.0212C17.4905 93.9235 18.381 93.0337 19.478 93.0337 20.5758 93.0337 21.4655 93.9234 21.4655 95.0212V99.2023C21.4655 100.3 20.5758 101.19 19.478 101.19 18.381 101.19 17.4905 100.3 17.4905 99.2023V95.0212z" stroke="#fff" stroke-width=".4"/><path d="M26.5652 95.0212C26.5652 93.9235 27.4557 93.0337 28.5527 93.0337 29.6505 93.0337 30.5402 93.9234 30.5402 95.0212V99.2023C30.5402 100.3 29.6505 101.19 28.5527 101.19 27.4557 101.19 26.5652 100.3 26.5652 99.2023V95.0212z" stroke="#fff" stroke-width=".4"/><path d="M52.447 85.5374C52.447 86.6351 51.5573 87.5249 50.4595 87.5249 49.3617 87.5249 48.472 86.6351 48.472 85.5374V81.5776C48.472 80.4799 49.3625 79.5901 50.4595 79.5901 51.5573 79.5901 52.447 80.4798 52.447 81.5776V85.5374z" stroke="#fff" stroke-width=".4"/><path d="M62.9768 85.5374C62.9768 86.6351 62.0862 87.5249 60.9893 87.5249 59.8915 87.5249 59.0018 86.6351 59.0018 85.5374V81.5776C59.0018 80.4798 59.8915 79.5901 60.9893 79.5901 62.0862 79.5901 62.9768 80.4799 62.9768 81.5776V85.5374z" stroke="#fff" stroke-width=".4"/><path d="M95.0698 53.7373v0C94.8216 52.9219 94.0572 52.3428 93.2043 52.3273L95.0698 53.7373zm0 0C95.3078 54.5186 95.0266 55.392 94.3795 55.8909 93.7139 56.4031 92.7662 56.433 92.0673 55.967 91.3082 55.4569 90.9885 54.467 91.3116 53.6122L91.3117 53.612M95.0698 53.7373 91.3117 53.612m0 0C91.604 52.8366 92.3754 52.3126 93.2042 52.3273L91.3117 53.612z" stroke="#fff" stroke-width=".4"/></g><defs><clipPath id="clip0"><path d="M0 0h112v112H0z" fill="#fff"/></clipPath></defs>
</svg>