<svg width="112" height="112" viewBox="0 0 112 112" fill="none" xmlns="http://www.w3.org/2000/svg">
<mask id="path-2-inside-1" fill="white">
<path d="M97.0667 78.4H94.1435C92.0934 78.4019 90.0718 78.879 88.2373 79.7944C85.5682 81.1211 82.4318 81.1211 79.7627 79.7944C78.698 79.272 77.5679 78.8951 76.4027 78.6744L80.0408 50.4H84C85.0309 50.4 85.8667 49.5642 85.8667 48.5333V41.0667C85.8667 40.0358 85.0309 39.2 84 39.2H76.5333V33.6C76.5333 33.1049 76.3364 32.6303 75.9864 32.2803L67.2 23.4939V17.696L70.0299 15.4336L74.8627 25.1011L78.204 23.4323L73.0109 13.048L75.32 11.2H82.1333C83.1642 11.2 84 10.3642 84 9.33333V1.86667C84 0.8358 83.1642 0 82.1333 0H63.4667C54.1931 0.0112 46.6779 7.5264 46.6667 16.8C46.6667 17.8309 47.5025 18.6667 48.5333 18.6667H52.2667V23.4939L47.2136 28.5469C46.8636 28.8969 46.6667 29.3715 46.6667 29.8667V39.2H42.9333V24.2667C42.9305 24.0354 42.8843 23.807 42.7971 23.5928C42.763 23.5202 42.7243 23.4498 42.6813 23.3819C42.6365 23.2841 42.584 23.1898 42.5245 23.1L35.4667 14.28V1.86667C35.4667 0.8358 34.6309 0 33.6 0H22.4C21.3691 0 20.5333 0.8358 20.5333 1.86667V14.28L13.4755 23.1C13.416 23.1898 13.3635 23.2841 13.3187 23.3819C13.2757 23.4498 13.237 23.5202 13.2029 23.5928C13.1157 23.807 13.0695 24.0354 13.0667 24.2667V39.2H5.6C4.56914 39.2 3.73334 40.0358 3.73334 41.0667V48.5333C3.73334 49.5642 4.56914 50.4 5.6 50.4H9.5592L16.8149 106.639C16.9351 107.57 17.728 108.267 18.6667 108.267H62.608C64.725 110.64 67.7532 111.998 70.9333 112H73.8565C75.9066 111.998 77.9282 111.521 79.7627 110.606C82.4318 109.279 85.5682 109.279 88.2373 110.606C90.0718 111.521 92.0934 111.998 94.1435 112H97.0667C103.25 111.994 108.261 106.983 108.267 100.8V89.6C108.261 83.4169 103.25 78.4061 97.0667 78.4ZM76.5333 3.73333H80.2667V7.46667H76.5333V3.73333ZM82.1333 42.9333V46.6667H56V42.9333H82.1333ZM50.5325 14.9333C51.4689 8.5085 56.9739 3.7415 63.4667 3.73333H72.8V8.43733L64.6781 14.9333H50.5325ZM63.4667 18.6667V22.4H56V18.6667H63.4667ZM50.4 30.6395L54.9061 26.1333H64.5605L72.8 34.3728V39.2H50.4V30.6395ZM48.5333 42.9333H52.2667V56C52.2627 56.711 52.6631 57.3622 53.2989 57.68L64.4989 63.28C65.0452 63.5493 65.4591 64.0278 65.6469 64.6072C65.8404 65.229 65.7732 65.9027 65.4603 66.4739C64.9231 67.5516 63.6141 67.9898 62.5364 67.4525C62.5347 67.4518 62.5331 67.4508 62.5315 67.4501L54.9528 63.6608C54.0265 63.2081 52.9088 63.5922 52.4561 64.5185C52.3322 64.7724 52.2674 65.051 52.2667 65.3333V84C52.2667 86.062 50.5953 87.7333 48.5333 87.7333V70.9333H44.8V87.7333H41.0667V70.9333H37.3333V87.7333H33.6V70.9333H29.8667V87.7333C27.8047 87.7333 26.1333 86.062 26.1333 84V42.9333H48.5333ZM24.2667 3.73333H31.7333V13.0667H24.2667V3.73333ZM23.296 16.8H32.704L37.184 22.4H18.816L23.296 16.8ZM16.8 26.1333H39.2V39.2H16.8V26.1333ZM7.46667 46.6667V42.9333H22.4V46.6667H7.46667ZM59.7333 89.6V100.8C59.7366 102.073 59.9576 103.335 60.3867 104.533H20.3075L13.3224 50.4H22.4V84C22.4 88.1237 25.743 91.4667 29.8667 91.4667H48.5333C52.657 91.4667 56 88.1237 56 84V68.3536L60.8757 70.7915C63.822 72.2456 67.3892 71.036 68.8434 68.0897C68.8494 68.0776 68.8553 68.0652 68.8613 68.0531C69.5844 66.6197 69.7074 64.9572 69.2029 63.4331C68.7055 61.9082 67.6158 60.6478 66.1789 59.9349L56 54.8464V50.4H76.2776L72.6637 78.4H70.9333C64.7502 78.4061 59.7394 83.4169 59.7333 89.6ZM104.533 100.8C104.533 104.924 101.19 108.267 97.0667 108.267H94.1435C92.6732 108.265 91.2235 107.922 89.908 107.266C86.1863 105.417 81.8137 105.417 78.092 107.266C76.7765 107.922 75.3268 108.265 73.8565 108.267H70.9333C66.8096 108.267 63.4667 104.924 63.4667 100.8V97.9253C65.5137 99.775 68.1744 100.799 70.9333 100.8H73.8565C75.9066 100.798 77.9282 100.321 79.7627 99.4056C82.4318 98.0789 85.5682 98.0789 88.2373 99.4056C90.0718 100.321 92.0934 100.798 94.1435 100.8H97.0667C99.8256 100.799 102.486 99.775 104.533 97.9253V100.8ZM97.0667 97.0667H94.1435C92.6732 97.0646 91.2235 96.7223 89.908 96.0661C86.1863 94.217 81.8137 94.217 78.092 96.0661C76.7765 96.7223 75.3268 97.0646 73.8565 97.0667H70.9333C66.8096 97.0667 63.4667 93.7237 63.4667 89.6C63.4667 85.4763 66.8096 82.1333 70.9333 82.1333H73.8565C75.3268 82.1354 76.7765 82.4777 78.092 83.1339C81.8139 84.9819 86.1861 84.9819 89.908 83.1339C91.2235 82.4777 92.6732 82.1354 94.1435 82.1333H97.0667C101.19 82.1333 104.533 85.4763 104.533 89.6C104.533 93.7237 101.19 97.0667 97.0667 97.0667Z"/>
</mask>
<path d="M97.0667 78.4H94.1435C92.0934 78.4019 90.0718 78.879 88.2373 79.7944C85.5682 81.1211 82.4318 81.1211 79.7627 79.7944C78.698 79.272 77.5679 78.8951 76.4027 78.6744L80.0408 50.4H84C85.0309 50.4 85.8667 49.5642 85.8667 48.5333V41.0667C85.8667 40.0358 85.0309 39.2 84 39.2H76.5333V33.6C76.5333 33.1049 76.3364 32.6303 75.9864 32.2803L67.2 23.4939V17.696L70.0299 15.4336L74.8627 25.1011L78.204 23.4323L73.0109 13.048L75.32 11.2H82.1333C83.1642 11.2 84 10.3642 84 9.33333V1.86667C84 0.8358 83.1642 0 82.1333 0H63.4667C54.1931 0.0112 46.6779 7.5264 46.6667 16.8C46.6667 17.8309 47.5025 18.6667 48.5333 18.6667H52.2667V23.4939L47.2136 28.5469C46.8636 28.8969 46.6667 29.3715 46.6667 29.8667V39.2H42.9333V24.2667C42.9305 24.0354 42.8843 23.807 42.7971 23.5928C42.763 23.5202 42.7243 23.4498 42.6813 23.3819C42.6365 23.2841 42.584 23.1898 42.5245 23.1L35.4667 14.28V1.86667C35.4667 0.8358 34.6309 0 33.6 0H22.4C21.3691 0 20.5333 0.8358 20.5333 1.86667V14.28L13.4755 23.1C13.416 23.1898 13.3635 23.2841 13.3187 23.3819C13.2757 23.4498 13.237 23.5202 13.2029 23.5928C13.1157 23.807 13.0695 24.0354 13.0667 24.2667V39.2H5.6C4.56914 39.2 3.73334 40.0358 3.73334 41.0667V48.5333C3.73334 49.5642 4.56914 50.4 5.6 50.4H9.5592L16.8149 106.639C16.9351 107.57 17.728 108.267 18.6667 108.267H62.608C64.725 110.64 67.7532 111.998 70.9333 112H73.8565C75.9066 111.998 77.9282 111.521 79.7627 110.606C82.4318 109.279 85.5682 109.279 88.2373 110.606C90.0718 111.521 92.0934 111.998 94.1435 112H97.0667C103.25 111.994 108.261 106.983 108.267 100.8V89.6C108.261 83.4169 103.25 78.4061 97.0667 78.4ZM76.5333 3.73333H80.2667V7.46667H76.5333V3.73333ZM82.1333 42.9333V46.6667H56V42.9333H82.1333ZM50.5325 14.9333C51.4689 8.5085 56.9739 3.7415 63.4667 3.73333H72.8V8.43733L64.6781 14.9333H50.5325ZM63.4667 18.6667V22.4H56V18.6667H63.4667ZM50.4 30.6395L54.9061 26.1333H64.5605L72.8 34.3728V39.2H50.4V30.6395ZM48.5333 42.9333H52.2667V56C52.2627 56.711 52.6631 57.3622 53.2989 57.68L64.4989 63.28C65.0452 63.5493 65.4591 64.0278 65.6469 64.6072C65.8404 65.229 65.7732 65.9027 65.4603 66.4739C64.9231 67.5516 63.6141 67.9898 62.5364 67.4525C62.5347 67.4518 62.5331 67.4508 62.5315 67.4501L54.9528 63.6608C54.0265 63.2081 52.9088 63.5922 52.4561 64.5185C52.3322 64.7724 52.2674 65.051 52.2667 65.3333V84C52.2667 86.062 50.5953 87.7333 48.5333 87.7333V70.9333H44.8V87.7333H41.0667V70.9333H37.3333V87.7333H33.6V70.9333H29.8667V87.7333C27.8047 87.7333 26.1333 86.062 26.1333 84V42.9333H48.5333ZM24.2667 3.73333H31.7333V13.0667H24.2667V3.73333ZM23.296 16.8H32.704L37.184 22.4H18.816L23.296 16.8ZM16.8 26.1333H39.2V39.2H16.8V26.1333ZM7.46667 46.6667V42.9333H22.4V46.6667H7.46667ZM59.7333 89.6V100.8C59.7366 102.073 59.9576 103.335 60.3867 104.533H20.3075L13.3224 50.4H22.4V84C22.4 88.1237 25.743 91.4667 29.8667 91.4667H48.5333C52.657 91.4667 56 88.1237 56 84V68.3536L60.8757 70.7915C63.822 72.2456 67.3892 71.036 68.8434 68.0897C68.8494 68.0776 68.8553 68.0652 68.8613 68.0531C69.5844 66.6197 69.7074 64.9572 69.2029 63.4331C68.7055 61.9082 67.6158 60.6478 66.1789 59.9349L56 54.8464V50.4H76.2776L72.6637 78.4H70.9333C64.7502 78.4061 59.7394 83.4169 59.7333 89.6ZM104.533 100.8C104.533 104.924 101.19 108.267 97.0667 108.267H94.1435C92.6732 108.265 91.2235 107.922 89.908 107.266C86.1863 105.417 81.8137 105.417 78.092 107.266C76.7765 107.922 75.3268 108.265 73.8565 108.267H70.9333C66.8096 108.267 63.4667 104.924 63.4667 100.8V97.9253C65.5137 99.775 68.1744 100.799 70.9333 100.8H73.8565C75.9066 100.798 77.9282 100.321 79.7627 99.4056C82.4318 98.0789 85.5682 98.0789 88.2373 99.4056C90.0718 100.321 92.0934 100.798 94.1435 100.8H97.0667C99.8256 100.799 102.486 99.775 104.533 97.9253V100.8ZM97.0667 97.0667H94.1435C92.6732 97.0646 91.2235 96.7223 89.908 96.0661C86.1863 94.217 81.8137 94.217 78.092 96.0661C76.7765 96.7223 75.3268 97.0646 73.8565 97.0667H70.9333C66.8096 97.0667 63.4667 93.7237 63.4667 89.6C63.4667 85.4763 66.8096 82.1333 70.9333 82.1333H73.8565C75.3268 82.1354 76.7765 82.4777 78.092 83.1339C81.8139 84.9819 86.1861 84.9819 89.908 83.1339C91.2235 82.4777 92.6732 82.1354 94.1435 82.1333H97.0667C101.19 82.1333 104.533 85.4763 104.533 89.6C104.533 93.7237 101.19 97.0667 97.0667 97.0667Z" fill="#5B6474" stroke="white" stroke-width="0.8" mask="url(#path-2-inside-1)"/>
<path d="M95.4 86.0667H98.7333V89.4H95.4V86.0667Z" fill="#5B6474" stroke="white" stroke-width="0.4"/>
<path d="M76.7333 86.0667H80.0667V89.4H76.7333V86.0667Z" fill="#5B6474" stroke="white" stroke-width="0.4"/>
<path d="M69.2667 87.9333H72.6V91.2667H69.2667V87.9333Z" fill="#5B6474" stroke="white" stroke-width="0.4"/>
<path d="M87.9333 87.9333H91.2667V91.2667H87.9333V87.9333Z" fill="#5B6474" stroke="white" stroke-width="0.4"/>
</svg>
