<svg width="112" height="112" viewBox="0 0 112 112" fill="none" xmlns="http://www.w3.org/2000/svg">
<g clip-path="url(#clip0)">
<mask id="path-2-inside-1" fill="white">
<path d="M90.9621 73.5009L93.0843 69.2106L86.1425 62.2688L81.8504 64.391C80.2786 63.5151 78.6186 62.8271 76.8933 62.3358L75.3611 57.8029H65.5421L64.01 62.3358C62.2847 62.8271 60.6246 63.5151 59.0528 64.391L54.7607 62.2688L47.8189 69.2106L49.9412 73.5009C49.6951 73.9419 49.4693 74.39 49.2531 74.8451L39.7419 71.675V69.5052C42.0882 67.9325 43.989 65.7573 45.2574 63.2117C49.1967 63.1597 52.3871 59.9472 52.3871 55.9965V46.6326C54.4846 45.8846 56 43.8973 56 41.5449C56 39.083 54.34 37.0234 52.089 36.3663C50.6292 27.8121 43.7509 21.1923 35.0961 20.0685C34.1779 18.8557 32.7384 18.061 31.1057 18.061H30.3136C28.6809 18.061 27.2414 18.8557 26.3232 20.0685C17.6746 21.1923 10.792 27.8165 9.33039 36.3663C7.07938 37.0234 5.41935 39.083 5.41935 41.5449C5.41935 43.8973 6.93473 45.8846 9.03226 46.6326V55.9965C9.03226 59.9057 12.1574 63.0803 16.1566 63.2011C17.425 65.752 19.3276 67.9298 21.6774 69.5069V71.6768L7.16406 76.5149C2.87991 77.9412 0 81.936 0 86.4539V104.771H57.8585C58.9408 105.308 61.8639 106.722 63.9994 107.432L65.5421 111.996H75.3611L76.8933 107.464C78.6186 106.973 80.2786 106.285 81.8504 105.408L86.1425 107.532L93.0843 100.589L90.9621 96.2985C91.8344 94.7267 92.5251 93.0667 93.0181 91.344L97.5484 89.8083V79.9902L93.0164 78.4563C92.5251 76.7327 91.8344 75.0727 90.9621 73.5009V73.5009ZM58.9478 79.737C60.9713 75.2341 65.4495 72.2545 70.4516 72.2545C77.4225 72.2545 83.0968 77.927 83.0968 84.8997C83.0968 91.8732 77.4225 97.5449 70.4516 97.5449C67.0407 97.5449 63.793 96.1503 61.4194 93.7247V86.4539C61.4194 83.9241 60.4923 81.5796 58.9478 79.737V79.737ZM57.8064 86.4539V101.158H50.5806V89.5719L50.0514 89.0418C48.0624 87.0537 46.9677 84.4084 46.9677 81.5964V77.8926L53.1113 79.9417C55.9206 80.8766 57.8064 83.4946 57.8064 86.4539ZM14.4516 97.5449H46.9677V101.158H14.4516V97.5449ZM43.3548 76.6878V81.5964C43.3548 85.1149 44.6321 88.4385 46.9677 91.0379V93.932H14.4516V91.0379C16.7873 88.4403 18.0645 85.1167 18.0645 81.5964V76.6878L21.8168 75.4379C22.4845 79.7626 26.2006 83.0932 30.7097 83.0932C35.2187 83.0932 38.9349 79.7626 39.6026 75.4379L43.3548 76.6878ZM48.7742 46.9642V49.7753C48.2141 49.4481 47.6108 49.1941 46.9677 49.0273V46.9642H48.7742ZM46.6317 59.2901C46.8522 58.2263 46.9677 57.1237 46.9677 55.9965V52.8863C48.043 53.5126 48.7742 54.6654 48.7742 55.9965C48.7742 57.4651 47.8913 58.7247 46.6317 59.2901ZM30.3136 21.6739H31.1057C31.8819 21.6739 32.5161 22.3063 32.5161 23.0852C32.5161 23.2007 32.502 23.318 32.4764 23.4265L31.1075 28.8997H30.3119L28.9447 23.4301C28.9173 23.318 28.9032 23.2007 28.9032 23.0852C28.9032 22.3063 29.5374 21.6739 30.3136 21.6739ZM17.4832 28.1649L20.0606 33.3206L23.2925 31.7038L20.3914 25.9034C21.9085 24.971 23.5924 24.2848 25.3882 23.8905C25.4094 24.0281 25.4041 24.1692 25.4385 24.3042L27.4946 32.5126H33.9265L35.9826 24.3007C36.0152 24.1675 36.01 24.0281 36.0329 23.8905C37.8305 24.2865 39.5126 24.971 41.0297 25.9034L38.1287 31.7055L41.3605 33.3223L43.9405 28.1649C46.1077 30.2986 47.661 33.0462 48.3587 36.1273H13.0624C13.7618 33.0462 15.3151 30.3004 17.4832 28.1649ZM10.8387 39.7384H50.5806C51.5774 39.7384 52.3871 40.5499 52.3871 41.5449C52.3871 42.5407 51.5774 43.3513 50.5806 43.3513H10.8387C9.84199 43.3513 9.03226 42.5407 9.03226 41.5449C9.03226 40.5499 9.84199 39.7384 10.8387 39.7384ZM14.4516 49.0273C13.8086 49.1958 13.2053 49.4481 12.6452 49.7753V46.9642H14.4516V49.0273ZM12.6452 55.9965C12.6452 54.6654 13.3764 53.5126 14.4516 52.8863V55.9965C14.4516 57.1237 14.5672 58.2263 14.7877 59.2901C13.5281 58.7247 12.6452 57.4651 12.6452 55.9965ZM18.0645 55.9965V46.9642H43.3548V55.9965C43.3548 62.97 37.6806 68.6416 30.7097 68.6416C23.7388 68.6416 18.0645 62.97 18.0645 55.9965ZM30.7097 72.2545C32.6123 72.2545 34.4311 71.9097 36.129 71.3063V74.061C36.129 77.0494 33.6972 79.4803 30.7097 79.4803C27.7222 79.4803 25.2903 77.0494 25.2903 74.061V71.3063C26.9883 71.9097 28.8071 72.2545 30.7097 72.2545ZM3.6129 86.4539C3.6129 83.4946 5.49874 80.8766 8.30809 79.9417L14.4516 77.8926V81.5964C14.4516 84.4084 13.357 87.0537 11.3679 89.0418L10.8387 89.5719V101.158H3.6129V86.4539ZM93.9355 87.2177L89.99 88.5523L89.7572 89.5243C89.2712 91.5566 88.4676 93.4953 87.3712 95.2815L86.8473 96.1327L88.6934 99.87L85.4183 103.145L81.682 101.297L80.8317 101.821C79.0428 102.921 77.1067 103.725 75.0727 104.209L74.1007 104.441L72.7679 108.384H68.1353L66.8025 104.439L65.8305 104.207C64.7959 103.96 62.9727 103.181 61.4211 102.468V98.3925C64.0708 100.165 67.2021 101.158 70.4516 101.158C79.4168 101.158 86.7097 93.864 86.7097 84.8997C86.7097 75.9362 79.4168 68.6416 70.4516 68.6416C64.3619 68.6416 58.849 72.0596 56.0706 77.3378C55.4963 77.015 54.8983 76.7274 54.2553 76.5131L52.7126 75.998C52.9648 75.4952 53.2365 75.0004 53.5302 74.5205L54.0542 73.6676L52.208 69.9303L55.4831 66.6552L59.2195 68.5032L60.0698 67.9792C61.8586 66.8793 63.7947 66.0748 65.8288 65.5906L66.8008 65.3595L68.1353 61.4158H72.7679L74.1007 65.3613L75.0727 65.5924C77.105 66.0766 79.0411 66.881 80.8317 67.981L81.682 68.5049L85.4183 66.657L88.6934 69.9321L86.8473 73.6694L87.3712 74.5205C88.4676 76.3067 89.2729 78.2428 89.7572 80.2777L89.99 81.2489L93.9355 82.5825V87.2177Z"/>
</mask>
<path d="M90.9621 73.5009L93.0843 69.2106L86.1425 62.2688L81.8504 64.391C80.2786 63.5151 78.6186 62.8271 76.8933 62.3358L75.3611 57.8029H65.5421L64.01 62.3358C62.2847 62.8271 60.6246 63.5151 59.0528 64.391L54.7607 62.2688L47.8189 69.2106L49.9412 73.5009C49.6951 73.9419 49.4693 74.39 49.2531 74.8451L39.7419 71.675V69.5052C42.0882 67.9325 43.989 65.7573 45.2574 63.2117C49.1967 63.1597 52.3871 59.9472 52.3871 55.9965V46.6326C54.4846 45.8846 56 43.8973 56 41.5449C56 39.083 54.34 37.0234 52.089 36.3663C50.6292 27.8121 43.7509 21.1923 35.0961 20.0685C34.1779 18.8557 32.7384 18.061 31.1057 18.061H30.3136C28.6809 18.061 27.2414 18.8557 26.3232 20.0685C17.6746 21.1923 10.792 27.8165 9.33039 36.3663C7.07938 37.0234 5.41935 39.083 5.41935 41.5449C5.41935 43.8973 6.93473 45.8846 9.03226 46.6326V55.9965C9.03226 59.9057 12.1574 63.0803 16.1566 63.2011C17.425 65.752 19.3276 67.9298 21.6774 69.5069V71.6768L7.16406 76.5149C2.87991 77.9412 0 81.936 0 86.4539V104.771H57.8585C58.9408 105.308 61.8639 106.722 63.9994 107.432L65.5421 111.996H75.3611L76.8933 107.464C78.6186 106.973 80.2786 106.285 81.8504 105.408L86.1425 107.532L93.0843 100.589L90.9621 96.2985C91.8344 94.7267 92.5251 93.0667 93.0181 91.344L97.5484 89.8083V79.9902L93.0164 78.4563C92.5251 76.7327 91.8344 75.0727 90.9621 73.5009V73.5009ZM58.9478 79.737C60.9713 75.2341 65.4495 72.2545 70.4516 72.2545C77.4225 72.2545 83.0968 77.927 83.0968 84.8997C83.0968 91.8732 77.4225 97.5449 70.4516 97.5449C67.0407 97.5449 63.793 96.1503 61.4194 93.7247V86.4539C61.4194 83.9241 60.4923 81.5796 58.9478 79.737V79.737ZM57.8064 86.4539V101.158H50.5806V89.5719L50.0514 89.0418C48.0624 87.0537 46.9677 84.4084 46.9677 81.5964V77.8926L53.1113 79.9417C55.9206 80.8766 57.8064 83.4946 57.8064 86.4539ZM14.4516 97.5449H46.9677V101.158H14.4516V97.5449ZM43.3548 76.6878V81.5964C43.3548 85.1149 44.6321 88.4385 46.9677 91.0379V93.932H14.4516V91.0379C16.7873 88.4403 18.0645 85.1167 18.0645 81.5964V76.6878L21.8168 75.4379C22.4845 79.7626 26.2006 83.0932 30.7097 83.0932C35.2187 83.0932 38.9349 79.7626 39.6026 75.4379L43.3548 76.6878ZM48.7742 46.9642V49.7753C48.2141 49.4481 47.6108 49.1941 46.9677 49.0273V46.9642H48.7742ZM46.6317 59.2901C46.8522 58.2263 46.9677 57.1237 46.9677 55.9965V52.8863C48.043 53.5126 48.7742 54.6654 48.7742 55.9965C48.7742 57.4651 47.8913 58.7247 46.6317 59.2901ZM30.3136 21.6739H31.1057C31.8819 21.6739 32.5161 22.3063 32.5161 23.0852C32.5161 23.2007 32.502 23.318 32.4764 23.4265L31.1075 28.8997H30.3119L28.9447 23.4301C28.9173 23.318 28.9032 23.2007 28.9032 23.0852C28.9032 22.3063 29.5374 21.6739 30.3136 21.6739ZM17.4832 28.1649L20.0606 33.3206L23.2925 31.7038L20.3914 25.9034C21.9085 24.971 23.5924 24.2848 25.3882 23.8905C25.4094 24.0281 25.4041 24.1692 25.4385 24.3042L27.4946 32.5126H33.9265L35.9826 24.3007C36.0152 24.1675 36.01 24.0281 36.0329 23.8905C37.8305 24.2865 39.5126 24.971 41.0297 25.9034L38.1287 31.7055L41.3605 33.3223L43.9405 28.1649C46.1077 30.2986 47.661 33.0462 48.3587 36.1273H13.0624C13.7618 33.0462 15.3151 30.3004 17.4832 28.1649ZM10.8387 39.7384H50.5806C51.5774 39.7384 52.3871 40.5499 52.3871 41.5449C52.3871 42.5407 51.5774 43.3513 50.5806 43.3513H10.8387C9.84199 43.3513 9.03226 42.5407 9.03226 41.5449C9.03226 40.5499 9.84199 39.7384 10.8387 39.7384ZM14.4516 49.0273C13.8086 49.1958 13.2053 49.4481 12.6452 49.7753V46.9642H14.4516V49.0273ZM12.6452 55.9965C12.6452 54.6654 13.3764 53.5126 14.4516 52.8863V55.9965C14.4516 57.1237 14.5672 58.2263 14.7877 59.2901C13.5281 58.7247 12.6452 57.4651 12.6452 55.9965ZM18.0645 55.9965V46.9642H43.3548V55.9965C43.3548 62.97 37.6806 68.6416 30.7097 68.6416C23.7388 68.6416 18.0645 62.97 18.0645 55.9965ZM30.7097 72.2545C32.6123 72.2545 34.4311 71.9097 36.129 71.3063V74.061C36.129 77.0494 33.6972 79.4803 30.7097 79.4803C27.7222 79.4803 25.2903 77.0494 25.2903 74.061V71.3063C26.9883 71.9097 28.8071 72.2545 30.7097 72.2545ZM3.6129 86.4539C3.6129 83.4946 5.49874 80.8766 8.30809 79.9417L14.4516 77.8926V81.5964C14.4516 84.4084 13.357 87.0537 11.3679 89.0418L10.8387 89.5719V101.158H3.6129V86.4539ZM93.9355 87.2177L89.99 88.5523L89.7572 89.5243C89.2712 91.5566 88.4676 93.4953 87.3712 95.2815L86.8473 96.1327L88.6934 99.87L85.4183 103.145L81.682 101.297L80.8317 101.821C79.0428 102.921 77.1067 103.725 75.0727 104.209L74.1007 104.441L72.7679 108.384H68.1353L66.8025 104.439L65.8305 104.207C64.7959 103.96 62.9727 103.181 61.4211 102.468V98.3925C64.0708 100.165 67.2021 101.158 70.4516 101.158C79.4168 101.158 86.7097 93.864 86.7097 84.8997C86.7097 75.9362 79.4168 68.6416 70.4516 68.6416C64.3619 68.6416 58.849 72.0596 56.0706 77.3378C55.4963 77.015 54.8983 76.7274 54.2553 76.5131L52.7126 75.998C52.9648 75.4952 53.2365 75.0004 53.5302 74.5205L54.0542 73.6676L52.208 69.9303L55.4831 66.6552L59.2195 68.5032L60.0698 67.9792C61.8586 66.8793 63.7947 66.0748 65.8288 65.5906L66.8008 65.3595L68.1353 61.4158H72.7679L74.1007 65.3613L75.0727 65.5924C77.105 66.0766 79.0411 66.881 80.8317 67.981L81.682 68.5049L85.4183 66.657L88.6934 69.9321L86.8473 73.6694L87.3712 74.5205C88.4676 76.3067 89.2729 78.2428 89.7572 80.2777L89.99 81.2489L93.9355 82.5825V87.2177Z" fill="#5B6474" stroke="white" stroke-width="0.8" mask="url(#path-2-inside-1)"/>
<path d="M87.8539 0.334532L87.8539 0.334529C93.967 -0.348975 100.088 1.5933 104.637 5.66099C109.189 9.73437 111.8 15.5697 111.8 21.6738C111.8 28.4461 108.539 34.9005 103.077 38.9362L103.076 38.9363C103.018 38.9796 102.968 39.0301 102.928 39.071C102.922 39.0778 102.915 39.0843 102.909 39.0905C102.875 39.1255 102.849 39.1527 102.821 39.1767L102.649 39.3252L102.818 39.4771C103.888 40.4363 104.574 41.8107 104.574 43.3512C104.574 45.6149 103.116 47.5295 101.094 48.2506L100.961 48.2979V48.4389V48.7706C100.961 54.6378 96.1899 59.4093 90.3226 59.4093C84.4554 59.4093 79.6839 54.6378 79.6839 48.7706V48.4389V48.2979L79.5511 48.2506C77.5292 47.5295 76.071 45.6149 76.071 43.3512C76.071 41.814 76.7536 40.4413 77.8183 39.483L77.9834 39.3344L77.8184 39.1858C77.7817 39.1527 77.7477 39.1178 77.7086 39.0775C77.6972 39.0658 77.6854 39.0536 77.6729 39.0409C77.621 38.988 77.5601 38.9281 77.4901 38.8759C71.0933 34.1063 67.8803 26.2097 69.1084 18.267L69.1084 18.267C70.549 8.93272 78.4338 1.38654 87.8539 0.334532ZM83.0968 48.5706H82.8968V48.7706C82.8968 52.8662 86.227 56.1964 90.3226 56.1964C94.4182 56.1964 97.7484 52.8662 97.7484 48.7706V48.5706H97.5484H83.0968ZM84.9033 20.0674H85.1033V19.8674V18.0609C85.1033 16.9556 84.2041 16.0545 83.0968 16.0545C81.9895 16.0545 81.0904 16.9556 81.0904 18.0609C81.0904 19.1672 81.9896 20.0674 83.0968 20.0674H84.9033ZM92.1291 38.1319H92.3291V37.9319V23.4803V23.2803H92.1291H88.5162H88.3162V23.4803V37.9319V38.1319H88.5162H92.1291ZM95.542 37.9319V38.1319H95.742H99.3432C99.3458 38.1323 99.349 38.1328 99.3524 38.1332C99.3606 38.1343 99.3721 38.1354 99.3858 38.1354H99.4869L99.5468 38.0539C100.032 37.3946 100.556 36.8034 101.168 36.3516L101.168 36.3516C105.883 32.8678 108.587 27.5167 108.587 21.6738C108.587 16.4833 106.367 11.5187 102.494 8.05574C98.5694 4.54557 93.4885 2.93858 88.2126 3.52786L88.2126 3.52786C80.2051 4.42343 73.5085 10.8269 72.2845 18.759C71.2378 25.5201 73.968 32.2418 79.4093 36.3025L79.4093 36.3025C80.044 36.7759 80.5827 37.3818 81.0809 38.0568L81.1409 38.1381H81.2419C81.2584 38.1381 81.2725 38.1365 81.2822 38.1351C81.2899 38.134 81.2971 38.1327 81.3012 38.1319H84.9033H85.1033V37.9319V23.4803V23.2803H84.9033H83.0968C80.2197 23.2803 77.8775 20.9388 77.8775 18.0609C77.8775 15.1839 80.2198 12.8416 83.0968 12.8416C85.9739 12.8416 88.3162 15.1839 88.3162 18.0609V19.8674V20.0674H88.5162H92.1291H92.3291V19.8674V18.0609C92.3291 15.1839 94.6714 12.8416 97.5484 12.8416C100.426 12.8416 102.768 15.1839 102.768 18.0609C102.768 20.9388 100.426 23.2803 97.5484 23.2803H95.742H95.542V23.4803V37.9319ZM95.542 19.8674V20.0674H95.742H97.5484C98.6557 20.0674 99.5549 19.1672 99.5549 18.0609C99.5549 16.9556 98.6557 16.0545 97.5484 16.0545C96.4411 16.0545 95.542 16.9556 95.542 18.0609V19.8674ZM81.2904 45.3577H99.3549C100.462 45.3577 101.361 44.4575 101.361 43.3512C101.361 42.246 100.462 41.3448 99.3549 41.3448H81.2904C80.1831 41.3448 79.2839 42.246 79.2839 43.3512C79.2839 44.4575 80.1831 45.3577 81.2904 45.3577Z" fill="#5B6474" stroke="white" stroke-width="0.4"/>
<path d="M34.5226 86.9061H41.3484V90.119H34.5226V86.9061Z" fill="#5B6474" stroke="white" stroke-width="0.4"/>
</g>
<defs>
<clipPath id="clip0">
<rect width="112" height="112" fill="white"/>
</clipPath>
</defs>
</svg>
