<svg width="112" height="112" viewBox="0 0 112 112" fill="none" xmlns="http://www.w3.org/2000/svg">
<path d="M86.5098 23.4838C86.5098 26.3609 84.1675 28.7032 81.2904 28.7032C78.4134 28.7032 76.0711 26.3609 76.0711 23.4838C76.0711 20.6067 78.4134 18.2645 81.2904 18.2645C84.1675 18.2645 86.5098 20.6067 86.5098 23.4838ZM83.2969 23.4838C83.2969 22.3784 82.3959 21.4774 81.2904 21.4774C80.185 21.4774 79.284 22.3784 79.284 23.4838C79.284 24.5892 80.185 25.4903 81.2904 25.4903C82.3959 25.4903 83.2969 24.5892 83.2969 23.4838Z" fill="#5B6474" stroke="white" stroke-width="0.4"/>
<mask id="path-3-inside-1" fill="white">
<path d="M97.3226 39.7419L92.7306 28.8362C93.4945 27.2088 93.9355 25.3988 93.9355 23.4839C93.9355 18.4526 90.9744 14.1103 86.7097 12.0762V3.6129C86.7097 1.62034 85.0893 0 83.0968 0H79.4839C77.4913 0 75.871 1.62034 75.871 3.6129V12.0762C71.6062 14.1103 68.6452 18.4526 68.6452 23.4839C68.6452 25.3988 69.0862 27.2088 69.8501 28.8362L65.2581 39.7419H56V0H34.3226V39.7419H30.7097V15.7103L21.6774 2.16192L12.6452 15.7103V39.7419H0V96.4899L15.5101 112H112V39.7419H97.3226ZM100.963 57.7015C101.094 58.012 101.161 58.3427 101.161 58.6823V58.8817C101.161 60.2815 100.023 61.4194 98.6254 61.4194C97.6022 61.4194 96.6849 60.8107 96.287 59.8696L85.9185 35.2399C87.5732 34.5863 89.0595 33.6002 90.2899 32.3538L100.963 57.7015ZM101.161 75.871V93.9355H79.4839V75.871H101.161ZM81.2903 36.129C81.6484 36.129 82.0004 36.1052 82.3506 36.0752L86.4583 45.8317C83.1947 47.2853 79.386 47.2853 76.1224 45.8317L80.2301 36.0752C80.5803 36.1052 80.9322 36.129 81.2903 36.129ZM79.4839 3.6129H83.0968V10.9834C82.504 10.8987 81.9042 10.8387 81.2903 10.8387C80.6764 10.8387 80.0766 10.8987 79.4839 10.9834V3.6129ZM81.2903 14.4516C86.2704 14.4516 90.3226 18.5038 90.3226 23.4839C90.3226 28.464 86.2704 32.5161 81.2903 32.5161C76.3102 32.5161 72.2581 28.464 72.2581 23.4839C72.2581 18.5038 76.3102 14.4516 81.2903 14.4516ZM76.6622 35.2399L66.2909 59.8696C65.8958 60.8107 64.9784 61.4194 63.9553 61.4194C62.5572 61.4194 61.4194 60.2815 61.4194 58.8834V58.6841C61.4194 58.3445 61.4864 58.0146 61.6178 57.7015L72.2907 32.3556C73.5194 33.6002 75.0074 34.5863 76.6622 35.2399ZM10.8387 72.2581H27.0968V83.0968H36.129V86.7097H10.8387V72.2581ZM30.7097 79.4839V68.6452H10.8387V65.0323H21.6774V63.2258C21.6774 60.2383 24.1092 57.8064 27.0968 57.8064H28.9032V50.5806H32.5161V66.8387H54.1935V50.5806H60.6952L58.2889 56.2964C57.9688 57.0549 57.8064 57.8567 57.8064 58.6823V58.8817C57.8064 61.3655 59.2954 63.4984 61.4194 64.4686V69.6498C60.3521 69.028 59.1287 68.6452 57.8064 68.6452C53.8213 68.6452 50.5806 71.8858 50.5806 75.871C50.5806 79.8561 53.8213 83.0968 57.8064 83.0968C61.7916 83.0968 65.0323 79.8561 65.0323 75.871V64.9273C66.4506 64.6768 67.7261 63.9447 68.6452 62.8571V86.7097H39.7419V79.4839H30.7097ZM10.8387 61.4194V50.5806H25.2903V54.3761C21.7568 55.095 18.966 57.8858 18.2471 61.4194H10.8387ZM36.129 50.5806H50.5806V63.2258H36.129V50.5806ZM61.4194 75.871C61.4194 77.8635 59.799 79.4839 57.8064 79.4839C55.8139 79.4839 54.1935 77.8635 54.1935 75.871C54.1935 73.8784 55.8139 72.2581 57.8064 72.2581C59.799 72.2581 61.4194 73.8784 61.4194 75.871ZM37.9355 3.6129H52.3871V7.22581H45.1613V10.8387H52.3871V14.4516H48.7742V18.0645H52.3871V21.6774H45.1613V25.2903H52.3871V28.9032H48.7742V32.5161H52.3871V39.7419H37.9355V3.6129ZM23.4839 39.7419V18.0645H27.0968V39.7419H23.4839ZM25.5285 14.4516H17.8281L21.6774 8.67679L25.5285 14.4516ZM16.2581 18.0645H19.871V39.7419H16.2581V18.0645ZM14.4516 105.833L6.16734 97.5484H14.4516V105.833ZM108.387 108.387H18.0645V93.9355H3.6129V43.3548H63.7374L62.2159 46.9677H7.22581V90.3226H72.2581V55.0086L74.7164 49.1702C76.7865 50.0911 79.0234 50.5806 81.2903 50.5806C83.5572 50.5806 85.7941 50.0911 87.8643 49.1702L92.9582 61.2694C93.7785 63.217 95.5179 64.5683 97.5484 64.9273V72.2581H75.871V97.5484H104.774V72.2581H101.161V64.4686C103.285 63.4984 104.774 61.3655 104.774 58.8817V58.6823C104.774 57.8567 104.612 57.0549 104.292 56.2964L98.8432 43.3548H108.387V108.387Z"/>
</mask>
<path d="M97.3226 39.7419L92.7306 28.8362C93.4945 27.2088 93.9355 25.3988 93.9355 23.4839C93.9355 18.4526 90.9744 14.1103 86.7097 12.0762V3.6129C86.7097 1.62034 85.0893 0 83.0968 0H79.4839C77.4913 0 75.871 1.62034 75.871 3.6129V12.0762C71.6062 14.1103 68.6452 18.4526 68.6452 23.4839C68.6452 25.3988 69.0862 27.2088 69.8501 28.8362L65.2581 39.7419H56V0H34.3226V39.7419H30.7097V15.7103L21.6774 2.16192L12.6452 15.7103V39.7419H0V96.4899L15.5101 112H112V39.7419H97.3226ZM100.963 57.7015C101.094 58.012 101.161 58.3427 101.161 58.6823V58.8817C101.161 60.2815 100.023 61.4194 98.6254 61.4194C97.6022 61.4194 96.6849 60.8107 96.287 59.8696L85.9185 35.2399C87.5732 34.5863 89.0595 33.6002 90.2899 32.3538L100.963 57.7015ZM101.161 75.871V93.9355H79.4839V75.871H101.161ZM81.2903 36.129C81.6484 36.129 82.0004 36.1052 82.3506 36.0752L86.4583 45.8317C83.1947 47.2853 79.386 47.2853 76.1224 45.8317L80.2301 36.0752C80.5803 36.1052 80.9322 36.129 81.2903 36.129ZM79.4839 3.6129H83.0968V10.9834C82.504 10.8987 81.9042 10.8387 81.2903 10.8387C80.6764 10.8387 80.0766 10.8987 79.4839 10.9834V3.6129ZM81.2903 14.4516C86.2704 14.4516 90.3226 18.5038 90.3226 23.4839C90.3226 28.464 86.2704 32.5161 81.2903 32.5161C76.3102 32.5161 72.2581 28.464 72.2581 23.4839C72.2581 18.5038 76.3102 14.4516 81.2903 14.4516ZM76.6622 35.2399L66.2909 59.8696C65.8958 60.8107 64.9784 61.4194 63.9553 61.4194C62.5572 61.4194 61.4194 60.2815 61.4194 58.8834V58.6841C61.4194 58.3445 61.4864 58.0146 61.6178 57.7015L72.2907 32.3556C73.5194 33.6002 75.0074 34.5863 76.6622 35.2399ZM10.8387 72.2581H27.0968V83.0968H36.129V86.7097H10.8387V72.2581ZM30.7097 79.4839V68.6452H10.8387V65.0323H21.6774V63.2258C21.6774 60.2383 24.1092 57.8064 27.0968 57.8064H28.9032V50.5806H32.5161V66.8387H54.1935V50.5806H60.6952L58.2889 56.2964C57.9688 57.0549 57.8064 57.8567 57.8064 58.6823V58.8817C57.8064 61.3655 59.2954 63.4984 61.4194 64.4686V69.6498C60.3521 69.028 59.1287 68.6452 57.8064 68.6452C53.8213 68.6452 50.5806 71.8858 50.5806 75.871C50.5806 79.8561 53.8213 83.0968 57.8064 83.0968C61.7916 83.0968 65.0323 79.8561 65.0323 75.871V64.9273C66.4506 64.6768 67.7261 63.9447 68.6452 62.8571V86.7097H39.7419V79.4839H30.7097ZM10.8387 61.4194V50.5806H25.2903V54.3761C21.7568 55.095 18.966 57.8858 18.2471 61.4194H10.8387ZM36.129 50.5806H50.5806V63.2258H36.129V50.5806ZM61.4194 75.871C61.4194 77.8635 59.799 79.4839 57.8064 79.4839C55.8139 79.4839 54.1935 77.8635 54.1935 75.871C54.1935 73.8784 55.8139 72.2581 57.8064 72.2581C59.799 72.2581 61.4194 73.8784 61.4194 75.871ZM37.9355 3.6129H52.3871V7.22581H45.1613V10.8387H52.3871V14.4516H48.7742V18.0645H52.3871V21.6774H45.1613V25.2903H52.3871V28.9032H48.7742V32.5161H52.3871V39.7419H37.9355V3.6129ZM23.4839 39.7419V18.0645H27.0968V39.7419H23.4839ZM25.5285 14.4516H17.8281L21.6774 8.67679L25.5285 14.4516ZM16.2581 18.0645H19.871V39.7419H16.2581V18.0645ZM14.4516 105.833L6.16734 97.5484H14.4516V105.833ZM108.387 108.387H18.0645V93.9355H3.6129V43.3548H63.7374L62.2159 46.9677H7.22581V90.3226H72.2581V55.0086L74.7164 49.1702C76.7865 50.0911 79.0234 50.5806 81.2903 50.5806C83.5572 50.5806 85.7941 50.0911 87.8643 49.1702L92.9582 61.2694C93.7785 63.217 95.5179 64.5683 97.5484 64.9273V72.2581H75.871V97.5484H104.774V72.2581H101.161V64.4686C103.285 63.4984 104.774 61.3655 104.774 58.8817V58.6823C104.774 57.8567 104.612 57.0549 104.292 56.2964L98.8432 43.3548H108.387V108.387Z" fill="#5B6474" stroke="white" stroke-width="0.8" mask="url(#path-3-inside-1)"/>
<path d="M43.3549 101.361H43.5549V101.161V97.5485V97.3485H43.3549H39.742H39.542V97.5485V101.161V101.361H39.742H43.3549ZM46.9678 97.3485H46.7678V97.5485V101.161V101.361H46.9678H50.5807H50.7807V101.161V97.5485V97.3485H50.5807H46.9678ZM36.1291 101.361H36.3291V101.161V97.5485V97.3485H36.1291H32.5162H32.3162V97.5485V101.161V101.361H32.5162H36.1291ZM57.8065 101.361H58.0065V101.161V97.5485V97.3485H57.8065H54.1936H53.9936V97.5485V101.161V101.361H54.1936H57.8065ZM25.2904 97.3485H25.0904V97.5485V101.161V101.361H25.2904H28.9033H29.1033V101.161V97.5485V97.3485H28.9033H25.2904ZM61.2194 94.1355V104.574H21.8775V94.1355H61.2194Z" fill="#5B6474" stroke="white" stroke-width="0.4"/>
<path d="M65.2322 101.361H104.574V104.574H65.2322V101.361Z" fill="#5B6474" stroke="white" stroke-width="0.4"/>
</svg>
