<svg width="112" height="112" viewBox="0 0 112 112" fill="none" xmlns="http://www.w3.org/2000/svg">
<g clip-path="url(#clip0)"><path d="M109.36 35.8434 56.9847.302613C56.3905-.10098 55.61-.100762 55.0155.302613L2.63973 35.8434C2.1587 36.1697 1.87061 36.7131 1.87061 37.2946V110.247C1.87061 111.215 2.6557 112 3.62432 112H108.376C109.344 112 110.13 111.215 110.13 110.247V37.2946C110.13 36.7131 109.842 36.1697 109.36 35.8434zM43.0229 108.493H24.0836V89.5535H28.0585V99.0232C28.0585 99.9916 28.8436 100.777 29.8122 100.777H37.2945C38.263 100.777 39.0483 99.9918 39.0483 99.0232V89.5535H43.0232V108.493H43.0229zM20.3425 44.8937V40.9188H91.6579V44.8937H20.3425zM31.5659 97.2695V89.5535H35.5408V97.2695H31.5659zM43.0229 86.0461H37.2943 29.812 24.0834V67.1067H28.0583V76.5764C28.0583 77.5448 28.8434 78.3301 29.812 78.3301H37.2943C38.2627 78.3301 39.048 77.545 39.048 76.5764V67.1067H43.0229V86.0461zM31.5659 74.8226V67.1067H35.5408V74.8226H31.5659zM65.4698 108.493H46.5304V89.5535H50.5053V99.0232C50.5053 99.9916 51.2904 100.777 52.259 100.777H59.7414C60.71 100.777 61.4951 99.9918 61.4951 99.0232V89.5535H65.47V108.493H65.4698zM54.0125 97.2695V89.5535H57.9874V97.2695H54.0125zM106.622 108.493H91.424V70.9645C91.424 69.9961 90.6391 69.2108 89.6703 69.2108 88.7017 69.2108 87.9166 69.9959 87.9166 70.9645V108.493H68.9772V87.7998C68.9772 86.8314 68.1923 86.0461 67.2235 86.0461H46.5304V65.353C46.5304 64.3846 45.7453 63.5992 44.7767 63.5992H24.0836V48.4009h63.833V63.4824C87.9166 64.4508 88.7014 65.2361 89.6703 65.2361 90.6389 65.2361 91.424 64.451 91.424 63.4824V48.4009H93.4116C94.3802 48.4009 95.1653 47.6158 95.1653 46.6472V39.1651C95.1653 38.1967 94.3804 37.4114 93.4116 37.4114H18.5888C17.6204 37.4114 16.8351 38.1965 16.8351 39.1651V46.6474C16.8351 47.6158 17.6202 48.4011 18.5888 48.4011H20.5764V108.493H5.37804V38.2238L56.0001 3.87305 106.622 38.2238V108.493h0z"/><path d="M63.4823 14.9646H48.5179C47.5495 14.9646 46.7642 15.7497 46.7642 16.7183 46.7642 17.6869 47.5493 18.472 48.5179 18.472H63.4823C64.451 18.472 65.236 17.6869 65.236 16.7183 65.236 15.7497 64.451 14.9646 63.4823 14.9646z"/><path d="M63.4823 22.4468H48.5179C47.5495 22.4468 46.7642 23.2319 46.7642 24.2005 46.7642 25.1691 47.5493 25.9542 48.5179 25.9542H63.4823C64.451 25.9542 65.236 25.1691 65.236 24.2005 65.236 23.2319 64.451 22.4468 63.4823 22.4468z"/><path d="M63.4823 29.929H48.5179C47.5495 29.929 46.7642 30.7141 46.7642 31.6827 46.7642 32.6513 47.5493 33.4364 48.5179 33.4364H63.4823C64.451 33.4364 65.236 32.6513 65.236 31.6827 65.236 30.7141 64.451 29.929 63.4823 29.929z"/><path d="M37.2944 80.4343H29.8121C28.8437 80.4343 28.0583 81.2194 28.0583 82.188 28.0583 83.1565 28.8434 83.9418 29.8121 83.9418H37.2944C38.2628 83.9418 39.0481 83.1567 39.0481 82.188 39.0479 81.2194 38.2628 80.4343 37.2944 80.4343z"/><path d="M37.2944 102.881H29.8121C28.8437 102.881 28.0583 103.666 28.0583 104.635 28.0583 105.603 28.8434 106.388 29.8121 106.388H37.2944C38.2628 106.388 39.0481 105.603 39.0481 104.635 39.0479 103.666 38.2628 102.881 37.2944 102.881z"/><path d="M59.7412 102.881H52.2588C51.2904 102.881 50.5051 103.666 50.5051 104.635 50.5051 105.603 51.2902 106.388 52.2588 106.388H59.7412C60.7098 106.388 61.4949 105.603 61.4949 104.635 61.4949 103.666 60.71 102.881 59.7412 102.881z"/></g><defs><clipPath id="clip0"><path d="M0 0h112v112H0z" fill="#fff"/></clipPath></defs>
</svg>