<svg width="125" height="31" viewBox="0 0 125 31" fill="none" xmlns="http://www.w3.org/2000/svg">
<path d="M15.5 30.9999C12.4344 30.9999 9.43766 30.0909 6.8887 28.3877C4.33975 26.6846 2.35307 24.2638 1.17992 21.4316C0.00676265 18.5993 -0.300187 15.4828 0.297883 12.4761C0.895954 9.46937 2.37218 6.70754 4.53989 4.53983C6.70761 2.37212 9.46944 0.895895 12.4761 0.297826C15.4828 -0.300243 18.5994 0.00670939 21.4316 1.17987C24.2639 2.35302 26.6846 4.3397 28.3878 6.88865C30.0909 9.43761 31 12.4344 31 15.5L23.5355 15.5C23.5355 13.9107 23.0643 12.3571 22.1813 11.0357C21.2984 9.71425 20.0434 8.68431 18.5751 8.07612C17.1068 7.46793 15.4911 7.3088 13.9324 7.61885C12.3736 7.92891 10.9418 8.69421 9.81806 9.818C8.69427 10.9418 7.92896 12.3736 7.61891 13.9323C7.30886 15.4911 7.46799 17.1067 8.07618 18.575C8.68437 20.0433 9.7143 21.2983 11.0357 22.1813C12.3572 23.0642 13.9108 23.5355 15.5 23.5355L15.5 30.9999Z" fill="#131926"/>
<rect x="31" y="23.5601" width="7.43999" height="7.43999" transform="rotate(90 31 23.5601)" fill="#DF2528"/>
<path d="M51.5887 25.9115C51.4488 27.4683 50.9012 28.7055 49.9456 29.6233C48.9901 30.5411 47.6792 31 46.0128 31C44.2066 31 42.7501 30.4075 41.643 29.2225C40.5477 28.0259 40 26.4459 40 24.4826C40 22.6238 40.5535 21.0786 41.6605 19.8472C42.7792 18.6157 44.2649 18 46.1177 18C47.5976 18 48.8386 18.4182 49.8408 19.2547C50.8429 20.0912 51.3964 21.1542 51.5013 22.4437H48.827C48.6871 21.7583 48.3725 21.2297 47.8831 20.8579C47.4053 20.4745 46.7994 20.2828 46.0653 20.2828C45.3078 20.2828 44.6669 20.4978 44.1426 20.9276C43.6298 21.3458 43.2686 21.8628 43.0589 22.4786C42.8491 23.0943 42.7442 23.7681 42.7442 24.5C42.7442 25.7779 43.0414 26.8003 43.6357 27.567C44.23 28.3222 45.0282 28.6997 46.0303 28.6997C47.6967 28.6997 48.6464 27.7703 48.8794 25.9115H51.5887Z" fill="#131926"/>
<path d="M62.0973 18.2962V20.6139H56.1544V30.7038H53.4277V18.2962H62.0973Z" fill="#131926"/>
<path d="M64.0413 30.6515V28.3512C64.4841 28.5371 64.9211 28.63 65.3523 28.63C65.7485 28.63 66.0573 28.5313 66.2787 28.3338C66.5001 28.1247 66.6108 27.8691 66.6108 27.567C66.6108 27.4625 66.5991 27.3579 66.5758 27.2534C66.5525 27.1488 66.5175 27.0326 66.4709 26.9048C66.4243 26.777 66.3835 26.6783 66.3486 26.6086C66.3136 26.5273 66.2554 26.4111 66.1738 26.2601C66.1039 26.109 66.0573 26.0103 66.034 25.9638L62.3808 18.2962H65.4047L68.2189 24.8311L70.9806 18.2962H73.8996L69.7046 27.4276C69.1103 28.7288 68.516 29.6408 67.9217 30.1635C67.3274 30.6747 66.5409 30.9303 65.562 30.9303C65.0143 30.9303 64.5074 30.8374 64.0413 30.6515Z" fill="#131926"/>
<path d="M78.9267 24.8485V27.0617H73.6655V24.8485H78.9267Z" fill="#131926"/>
<path d="M87.2508 18.2788L91.9876 30.7038H89.121L88.1422 27.933H83.5102L82.4964 30.7038H79.6998L84.4366 18.2788H87.2508ZM87.478 25.9464L85.835 21.3284L84.1744 25.9464H87.478Z" fill="#131926"/>
<path d="M93.0463 18.2962H98.4124C99.8108 18.2962 100.918 18.6332 101.733 19.307C102.561 19.9692 102.975 20.9625 102.975 22.2869C102.975 23.588 102.567 24.5755 101.751 25.2493C100.935 25.9115 99.869 26.2426 98.5523 26.2426H95.7556V30.7038H93.0463V18.2962ZM95.7556 20.5268V24.0992H98.1852C99.6069 24.0992 100.318 23.5067 100.318 22.3217C100.318 21.1251 99.6127 20.5268 98.2027 20.5268H95.7556Z" fill="#131926"/>
<path d="M113.934 18.2962V20.6139H110.193V30.7038H107.449V20.6139H103.708V18.2962H113.934Z" fill="#131926"/>
<path d="M120.263 18.2788L125 30.7038H122.133L121.155 27.933H116.523L115.509 30.7038H112.712L117.449 18.2788H120.263ZM120.49 25.9464L118.847 21.3284L117.187 25.9464H120.49Z" fill="#131926"/>
</svg>
