<svg width="95" height="65" viewBox="0 0 95 65" fill="none" xmlns="http://www.w3.org/2000/svg">
<path d="M79.7397 18.6572L79.7398 18.6572C79.4409 18.3749 79.0392 18.2225 78.6153 18.2225H68.6917C67.7658 18.2225 67.0073 18.9811 67.0073 19.9069V35.7693C67.0073 36.6951 67.7658 37.4537 68.6917 37.4537H84.438C85.3639 37.4537 86.1224 36.6951 86.1224 35.7693V25.1492C86.1224 24.679 85.9208 24.224 85.5668 23.9035L79.7397 18.6572ZM79.7397 18.6572L79.7441 18.6612L85.5663 23.9031L79.7397 18.6572ZM82.5036 34.0848H82.7536V33.8348V26.0004V25.889L82.6708 25.8146L78.0282 21.6362L77.9569 21.572H77.8609H70.6261H70.3761V21.822V33.8348V34.0848H70.6261H82.5036ZM13.3878 49.8519V50.1019H13.6378H17.526C18.4518 50.1019 19.2104 50.8605 19.2104 51.7864C19.2104 52.7122 18.4518 53.4708 17.526 53.4708H11.7033C10.7775 53.4708 10.0189 52.7122 10.0189 51.7864V44.7064C10.0189 43.7805 10.7775 43.0219 11.7033 43.0219C12.6292 43.0219 13.3878 43.7805 13.3878 44.7064V49.8519ZM5.86277 32.076H5.86133C4.93624 32.076 4.17937 31.3192 4.1962 30.3767L4.19624 30.3767V30.3722C4.19624 29.4496 4.95152 28.7071 5.88068 28.7071H5.88069H5.88071H5.88072H5.88074H5.88075H5.88077H5.88078H5.8808H5.88082H5.88083H5.88085H5.88087H5.88088H5.8809H5.88092H5.88094H5.88096H5.88098H5.881H5.88101H5.88103H5.88105H5.88106H5.88108H5.8811H5.88111H5.88113H5.88115H5.88117H5.88119H5.88121H5.88123H5.88126H5.88128H5.8813H5.88132H5.88135H5.88137H5.8814H5.88142H5.88145H5.88147H5.8815H5.88153H5.88156H5.88157H5.88159H5.8816H5.88162H5.88163H5.88165H5.88166H5.88168H5.8817H5.88171H5.88173H5.88174H5.88176H5.88178H5.88179H5.88181H5.88183H5.88185H5.88186H5.88188H5.8819H5.88192H5.88194H5.88195H5.88197H5.88199H5.88201H5.88203H5.88205H5.88207H5.88209H5.88211H5.88213H5.88215H5.88217H5.88219H5.88221H5.88223H5.88225H5.88227H5.8823H5.88232H5.88234H5.88236H5.88238H5.88241H5.88243H5.88245H5.88248H5.8825H5.88252H5.88255H5.88257H5.88259H5.88262H5.88264H5.88267H5.88269H5.88272H5.88274H5.88277H5.8828H5.88282H5.88285H5.88287H5.8829H5.88293H5.88296H5.88298H5.88301H5.88304H5.88307H5.88309H5.88312H5.88315H5.88318H5.88321H5.88324H5.88327H5.8833H5.88333H5.88336H5.88339H5.88342H5.88345H5.88348H5.88351H5.88354H5.88358H5.88361H5.88364H5.88367H5.88371H5.88374H5.88377H5.88381H5.88384H5.88387H5.88391H5.88394H5.88398H5.88401H5.88405H5.88408H5.88412H5.88415H5.88419H5.88423H5.88426H5.8843H5.88434H5.88438H5.88441H5.88445H5.88449H5.88453H5.88457H5.88461H5.88465H5.88469H5.88473H5.88477H5.88481H5.88485H5.88489H5.88493H5.88497H5.88501H5.88505H5.8851H5.88514H5.88518H5.88522H5.88527H5.88531H5.88535H5.8854H5.88544H5.88549H5.88553H5.88558H5.88562H5.88567H5.88572H5.88576H5.88581H5.88586H5.8859H5.88595H5.886H5.88605H5.88609H5.88614H5.88619H5.88624H5.88629H5.88634H5.88639H5.88644H5.88649H5.88654H5.88659H5.88665H5.8867H5.88675H5.8868H5.88686H5.88691H5.88696H5.88702H5.88707H5.88712H5.88718H5.88723H5.88729H5.88734H5.8874H5.88746H5.88751H5.88757H5.88763H5.88768H5.88774H5.8878H5.88786H5.88792H5.88798H5.88804H5.8881H5.88816H5.88822H5.88828H5.88834H5.8884H5.88846H5.88852H5.88858H5.88865H5.88871H5.88877H5.88884H5.8889H5.88896H5.88903H5.88909H5.88916H5.88923H5.88929H5.88936H5.88942H5.88949H5.88956H5.88963H5.88969H5.88976H5.88983H5.8899H5.88997H5.89004H5.89011H5.89018H5.89025H5.89032H5.89039H5.89046H5.89054H5.89061H5.89068H5.89076H5.89083H5.8909H5.89098H5.89105H5.89113H5.8912H5.89128H5.89135H5.89143H5.89151H5.89158H5.89166H5.89174H5.89182H5.8919H5.89198H5.89206H5.89213H5.89221H5.8923H5.89238H5.89246H5.89254H5.89262H5.8927H5.89279H5.89287H5.89295H5.89304H5.89312H5.89321H5.89329H5.89338H5.89346H5.89355H5.89363H5.89372H5.89381H5.8939H5.89399H5.89407H5.89416H5.89425H5.89434H5.89443H5.89452H5.89461H5.8947H5.8948H5.89489H5.89498H5.89507H5.89517H5.89526H5.89535H5.89545H5.89554H5.89564H5.89574H5.89583H5.89593H5.89602H5.89612H5.89622H5.89632H5.89642H5.89652H5.89662H5.89671H5.89682H5.89692H5.89702H5.89712H5.89722H5.89732H5.89743H5.89753H5.89763H5.89774H5.89784H5.89795H5.89805H5.89816H5.89826H5.89837H5.89848L5.89858 28.7071L5.89869 28.7071H5.8988H5.89891H5.89902H5.89913H5.89924H5.89935H5.89946H5.89957H5.89968H5.89979H5.89991H5.90002L29.3632 28.8425H29.3647C30.2898 28.8425 31.0466 29.5993 31.0298 30.5418C31.0129 31.4686 30.2546 32.211 29.3268 32.2114C29.3265 32.2114 29.3263 32.2114 29.326 32.2114L5.86277 32.076ZM94.1248 21.1247L94.125 21.1249C94.5081 21.4414 94.7316 21.9303 94.75 22.4446L94.5952 51.7657V51.767C94.5952 52.6896 93.84 53.4321 92.9108 53.4321H88.9839C88.058 53.4321 87.2995 52.6735 87.2995 51.7477C87.2995 50.8218 88.058 50.0632 88.9839 50.0632H90.9957H91.2444L91.2457 49.8145L91.3811 23.3321L91.3817 23.2138L91.2906 23.1383L78.6781 12.6924L78.6087 12.6349H78.5186H62.9271H62.6771V12.8849V49.8519V50.1019H62.9271H66.8153C67.7412 50.1019 68.4997 50.8605 68.4997 51.7864C68.4997 52.7122 67.7412 53.4708 66.8153 53.4708H43.1959C42.27 53.4708 41.5115 52.7122 41.5115 51.7864C41.5115 50.8605 42.27 50.1019 43.1959 50.1019H59.0582H59.3082V49.8519V3.98654V3.73654H59.0582H13.6378H13.3878V3.98654V16.2122C13.3878 17.138 12.6292 17.8966 11.7033 17.8966C10.7775 17.8966 10.0189 17.138 10.0189 16.2122V2.05211C10.0189 1.12624 10.7775 0.367676 11.7033 0.367676H60.9733C61.8992 0.367676 62.6578 1.12624 62.6578 2.05211V9.01607V9.26607H62.9078H79.1957C79.602 9.26607 79.9708 9.40063 80.2737 9.65304L80.2743 9.65352L94.1248 21.1247ZM71.653 50.2038C73.2702 48.6055 75.4125 47.7226 77.6675 47.7226C82.2859 47.7226 86.0451 51.516 86.0451 56.1775C86.0451 60.839 82.2859 64.6325 77.6675 64.6325C75.4133 64.6325 73.2896 63.7501 71.652 62.1502C70.0165 60.533 69.1352 58.4305 69.1352 56.1775C69.1352 53.9257 70.035 51.8224 71.653 50.2038ZM72.504 56.1775C72.504 58.9503 74.8638 61.2636 77.6675 61.2636C80.4403 61.2636 82.6762 58.9812 82.6762 56.1775C82.6762 53.3739 80.4403 51.0915 77.6675 51.0915C74.8638 51.0915 72.504 53.4048 72.504 56.1775ZM24.4148 50.2032C26.0319 48.6052 28.1739 47.7226 30.4286 47.7226C35.0471 47.7226 38.8062 51.516 38.8062 56.1775C38.8062 60.839 35.0471 64.6325 30.4286 64.6325C28.1746 64.6325 26.0511 63.7503 24.4136 62.1507C22.7778 60.5334 21.8963 58.4308 21.8963 56.1775C21.8963 53.9254 22.7964 51.8219 24.4148 50.2032ZM25.2652 56.1775C25.2652 58.9503 27.6249 61.2636 30.4286 61.2636C33.2015 61.2636 35.4373 58.9812 35.4373 56.1775C35.4373 53.3739 33.2015 51.0915 30.4286 51.0915C27.6249 51.0915 25.2652 53.4048 25.2652 56.1775ZM25.3991 37.6248C26.325 37.6248 27.0835 38.3834 27.0835 39.3093C27.0835 40.2529 26.3266 40.9937 25.3991 40.9937H1.93443C1.00857 40.9937 0.25 40.2351 0.25 39.3093C0.25 38.3834 1.00857 37.6248 1.93443 37.6248H25.3991ZM33.2722 23.2937H9.80757C8.88171 23.2937 8.12314 22.5351 8.12314 21.6092C8.12314 20.6834 8.88171 19.9248 9.80757 19.9248H33.2722C34.1981 19.9248 34.9567 20.6834 34.9567 21.6092C34.9567 22.5351 34.1981 23.2937 33.2722 23.2937Z" fill="#DF2528" stroke="#131926" stroke-width="0.5"/>
</svg>
