<svg width="44" height="44" viewBox="0 0 44 44" fill="none" xmlns="http://www.w3.org/2000/svg">
<g clip-path="url(#clip0)">
<path d="M22.0001 0C10.0949 0 0.40918 9.68573 0.40918 21.5909C0.40918 33.4952 10.0949 43.1818 22.0001 43.1818C33.9044 43.1818 43.591 33.4952 43.591 21.5909C43.591 9.68573 33.9061 0 22.0001 0ZM27.3696 22.351H23.8569C23.8569 27.9631 23.8569 34.8711 23.8569 34.8711H18.6518C18.6518 34.8711 18.6518 28.0301 18.6518 22.351H16.1775V17.926H18.6518V15.0639C18.6518 13.014 19.6258 9.81097 23.9047 9.81097L27.7618 9.82575V14.1211C27.7618 14.1211 25.418 14.1211 24.9623 14.1211C24.5065 14.1211 23.8586 14.349 23.8586 15.3265V17.9269H27.8244L27.3696 22.351Z" fill="white"/>
</g>
<defs>
<clipPath id="clip0">
<rect x="0.40918" width="43.1818" height="43.1818" fill="white"/>
</clipPath>
</defs>
</svg>
