<svg width="44" height="44" viewBox="0 0 44 44" fill="none" xmlns="http://www.w3.org/2000/svg">
<g clip-path="url(#clip0)">
<path d="M26.5416 21.5909C26.5416 23.8733 24.6914 25.7235 22.409 25.7235C20.1266 25.7235 18.2764 23.8733 18.2764 21.5909C18.2764 19.3084 20.1266 17.4583 22.409 17.4583C24.6914 17.4583 26.5416 19.3084 26.5416 21.5909Z" fill="white"/>
<path d="M32.0741 14.2791C31.8755 13.7407 31.5585 13.2535 31.1467 12.8535C30.7468 12.4417 30.2598 12.1248 29.7212 11.9261C29.2843 11.7565 28.6281 11.5545 27.4193 11.4995C26.1117 11.4399 25.7197 11.427 22.4093 11.427C19.0987 11.427 18.7066 11.4395 17.3994 11.4992C16.1906 11.5545 15.534 11.7565 15.0975 11.9261C14.5589 12.1248 14.0716 12.4417 13.672 12.8535C13.2602 13.2535 12.9432 13.7404 12.7442 14.2791C12.5746 14.7159 12.3726 15.3725 12.3176 16.5813C12.258 17.8885 12.2451 18.2806 12.2451 21.5912C12.2451 24.9016 12.258 25.2936 12.3176 26.6012C12.3726 27.8099 12.5746 28.4662 12.7442 28.9031C12.9432 29.4417 13.2598 29.9286 13.6716 30.3286C14.0716 30.7404 14.5585 31.0574 15.0972 31.256C15.534 31.426 16.1906 31.628 17.3994 31.683C18.7066 31.7426 19.0984 31.7551 22.409 31.7551C25.72 31.7551 26.112 31.7426 27.419 31.683C28.6277 31.628 29.2843 31.426 29.7212 31.256C30.8024 30.8389 31.657 29.9843 32.0741 28.9031C32.2438 28.4662 32.4457 27.8099 32.5011 26.6012C32.5607 25.2936 32.5732 24.9016 32.5732 21.5912C32.5732 18.2806 32.5607 17.8885 32.5011 16.5813C32.4461 15.3725 32.2441 14.7159 32.0741 14.2791ZM22.4093 27.9572C18.8931 27.9572 16.0427 25.1071 16.0427 21.5909C16.0427 18.0747 18.8931 15.2246 22.4093 15.2246C25.9252 15.2246 28.7757 18.0747 28.7757 21.5909C28.7757 25.1071 25.9252 27.9572 22.4093 27.9572ZM29.0274 16.4607C28.2057 16.4607 27.5396 15.7945 27.5396 14.9729C27.5396 14.1512 28.2057 13.4851 29.0274 13.4851C29.849 13.4851 30.5152 14.1512 30.5152 14.9729C30.5148 15.7945 29.849 16.4607 29.0274 16.4607Z" fill="white"/>
<path d="M22.4093 0C10.4868 0 0.818359 9.6684 0.818359 21.5909C0.818359 33.5134 10.4868 43.1818 22.4093 43.1818C34.3318 43.1818 44.0002 33.5134 44.0002 21.5909C44.0002 9.6684 34.3318 0 22.4093 0ZM34.7324 26.7023C34.6724 28.0221 34.4626 28.9232 34.1562 29.7119C33.5121 31.3773 32.1956 32.6937 30.5302 33.3378C29.7419 33.6442 28.8405 33.8537 27.521 33.914C26.1989 33.9743 25.7766 33.9888 22.4096 33.9888C19.0423 33.9888 18.6203 33.9743 17.2978 33.914C15.9784 33.8537 15.077 33.6442 14.2886 33.3378C13.461 33.0265 12.7119 32.5386 12.0925 31.9077C11.4619 31.2886 10.974 30.5391 10.6627 29.7119C10.3563 28.9235 10.1464 28.0221 10.0865 26.7027C10.0255 25.3803 10.0114 24.9579 10.0114 21.5909C10.0114 18.2239 10.0255 17.8016 10.0861 16.4795C10.1461 15.1597 10.3556 14.2586 10.662 13.4699C10.9734 12.6427 11.4616 11.8932 12.0925 11.2741C12.7115 10.6432 13.461 10.1553 14.2883 9.844C15.077 9.53761 15.9781 9.32808 17.2978 9.26779C18.6199 9.2075 19.0423 9.193 22.4093 9.193C25.7763 9.193 26.1986 9.2075 27.5207 9.26812C28.8405 9.32808 29.7415 9.53761 30.5302 9.84367C31.3575 10.155 32.107 10.6432 32.7264 11.2741C33.3569 11.8935 33.8452 12.6427 34.1562 13.4699C34.4629 14.2586 34.6724 15.1597 34.7327 16.4795C34.793 17.8016 34.8072 18.2239 34.8072 21.5909C34.8072 24.9579 34.793 25.3803 34.7324 26.7023Z" fill="white"/>
</g>
<defs>
<clipPath id="clip0">
<rect x="0.818359" width="43.1818" height="43.1818" fill="white"/>
</clipPath>
</defs>
</svg>
