<svg width="194" height="48" viewBox="0 0 194 48" fill="none" xmlns="http://www.w3.org/2000/svg">
<path d="M24 47.9999C19.2533 47.9999 14.6132 46.5923 10.6664 43.9552C6.71961 41.318 3.64347 37.5698 1.82697 33.1843C0.0104739 28.7989 -0.464803 23.9733 0.461242 19.3178C1.38729 14.6623 3.67306 10.3859 7.02952 7.02942C10.386 3.67297 14.6624 1.38719 19.3179 0.46115C23.9734 -0.464892 28.799 0.0103887 33.1844 1.82689C37.5699 3.64339 41.3181 6.71953 43.9553 10.6663C46.5924 14.6131 48 19.2532 48 24L36.4421 24C36.4421 21.5391 35.7124 19.1336 34.3453 17.0875C32.9781 15.0414 31.0349 13.4467 28.7614 12.505C26.4879 11.5633 23.9862 11.3169 21.5727 11.7969C19.1592 12.277 16.9422 13.462 15.2022 15.2021C13.4621 16.9421 12.2771 19.1591 11.797 21.5726C11.3169 23.9862 11.5633 26.4878 12.505 28.7613C13.4468 31.0348 15.0415 32.978 17.0876 34.3452C19.1337 35.7123 21.5392 36.442 24 36.442L24 47.9999Z" fill="#FBFBFB"/>
<rect x="48" y="36.48" width="11.52" height="11.52" transform="rotate(90 48 36.48)" fill="#DF2528"/>
<path d="M79.8793 40.121C79.6628 42.5314 78.8148 44.4472 77.3352 45.8683C75.8557 47.2893 73.8259 47.9999 71.2457 47.9999C68.4491 47.9999 66.1937 47.0825 64.4796 45.2477C62.7836 43.3948 61.9355 40.9484 61.9355 37.9084C61.9355 35.0302 62.7926 32.6378 64.5067 30.731C66.2388 28.8242 68.5393 27.8708 71.4081 27.8708C73.6996 27.8708 75.6212 28.5184 77.1729 29.8136C78.7246 31.1088 79.5816 32.7547 79.744 34.7514H75.6031C75.3866 33.6901 74.8994 32.8716 74.1416 32.296C73.4019 31.7024 72.4636 31.4056 71.3269 31.4056C70.1541 31.4056 69.1618 31.7384 68.3498 32.4039C67.5559 33.0515 66.9966 33.852 66.6718 34.8054C66.3471 35.7588 66.1847 36.8021 66.1847 37.9354C66.1847 39.9141 66.6448 41.4971 67.565 42.6843C68.4852 43.8536 69.7211 44.4382 71.2728 44.4382C73.8529 44.4382 75.3234 42.9991 75.6843 40.121H79.8793Z" fill="#FBFBFB"/>
<path d="M96.1508 28.3296V31.9182H86.9488V47.5412H82.7268V28.3296H96.1508Z" fill="#FBFBFB"/>
<path d="M99.1608 47.4602V43.8985C99.8465 44.1863 100.523 44.3302 101.191 44.3302C101.804 44.3302 102.282 44.1773 102.625 43.8715C102.968 43.5477 103.139 43.152 103.139 42.6843C103.139 42.5224 103.121 42.3605 103.085 42.1986C103.049 42.0367 102.995 41.8568 102.923 41.659C102.851 41.4611 102.787 41.3082 102.733 41.2003C102.679 41.0743 102.589 40.8945 102.463 40.6606C102.354 40.4268 102.282 40.2739 102.246 40.2019L96.5897 28.3296H101.272L105.629 38.448L109.905 28.3296H114.425L107.93 42.4684C107.01 44.4831 106.089 45.8952 105.169 46.7047C104.249 47.4962 103.031 47.892 101.515 47.892C100.667 47.892 99.8826 47.748 99.1608 47.4602Z" fill="#FBFBFB"/>
<path d="M122.209 38.475V41.9018H114.063V38.475H122.209Z" fill="#FBFBFB"/>
<path d="M135.098 28.3026L142.433 47.5412H137.994L136.478 43.2509H129.306L127.736 47.5412H123.406L130.741 28.3026H135.098ZM135.45 40.1749L132.906 33.0245L130.335 40.1749H135.45Z" fill="#FBFBFB"/>
<path d="M144.072 28.3296H152.381C154.546 28.3296 156.26 28.8512 157.523 29.8945C158.804 30.9199 159.444 32.4579 159.444 34.5086C159.444 36.5233 158.813 38.0523 157.55 39.0956C156.287 40.121 154.636 40.6336 152.597 40.6336H148.267V47.5412H144.072V28.3296ZM148.267 31.7833V37.3148H152.029C154.23 37.3148 155.331 36.3974 155.331 34.5625C155.331 32.7097 154.239 31.7833 152.056 31.7833H148.267Z" fill="#FBFBFB"/>
<path d="M176.414 28.3296V31.9182H170.622V47.5412H166.373V31.9182H160.581V28.3296H176.414Z" fill="#FBFBFB"/>
<path d="M186.214 28.3026L193.548 47.5412H189.11L187.594 43.2509H180.422L178.852 47.5412H174.522L181.857 28.3026H186.214ZM186.566 40.1749L184.022 33.0245L181.451 40.1749H186.566Z" fill="#FBFBFB"/>
</svg>
