<svg width="44" height="44" viewBox="0 0 44 44" fill="none" xmlns="http://www.w3.org/2000/svg">
<g clip-path="url(#clip0)">
<path d="M21.5909 0C9.66698 0 0 9.66654 0 21.5909C0 33.5153 9.66698 43.1818 21.5909 43.1818C33.5148 43.1818 43.1818 33.5153 43.1818 21.5909C43.1818 9.66654 33.5148 0 21.5909 0ZM32.543 23.926C33.5493 24.909 34.6139 25.834 35.5173 26.9185C35.9176 27.3983 36.2948 27.8944 36.582 28.4523C36.9919 29.2479 36.6217 30.1204 35.9096 30.1676L31.4863 30.1668C30.3439 30.2613 29.4348 29.8005 28.6683 29.0195C28.0565 28.3971 27.4888 27.7322 26.8995 27.0886C26.6588 26.8244 26.4052 26.5757 26.103 26.38C25.5 25.9877 24.9761 26.1079 24.6306 26.7378C24.2786 27.3788 24.1982 28.0892 24.1646 28.8026C24.1164 29.8456 23.8019 30.1182 22.7554 30.1672C20.5192 30.2719 18.3974 29.9326 16.4254 28.8053C14.6858 27.8109 13.3393 26.4074 12.166 24.8184C9.88124 21.7208 8.13143 18.321 6.55922 14.8236C6.20537 14.036 6.46424 13.6145 7.33318 13.5982C8.77684 13.5704 10.2205 13.5739 11.6642 13.5969C12.2517 13.6061 12.6405 13.9423 12.8662 14.4967C13.6463 16.4162 14.6027 18.2424 15.8012 19.9361C16.1206 20.3871 16.4466 20.8368 16.9109 21.1553C17.4234 21.507 17.8139 21.3908 18.0555 20.8187C18.2101 20.4552 18.2768 20.0664 18.3104 19.6768C18.4253 18.3422 18.439 17.0081 18.2402 15.6789C18.1165 14.847 17.6487 14.3099 16.8195 14.1526C16.3972 14.0726 16.459 13.9163 16.6644 13.6751C17.0209 13.258 17.3549 13 18.0224 13L23.02 12.9992C23.8076 13.1538 23.9844 13.5072 24.0913 14.3006L24.0957 19.8544C24.0864 20.1614 24.2498 21.0714 24.8012 21.2724C25.2429 21.4182 25.5345 21.0639 25.7987 20.7843C26.9971 19.5124 27.8511 18.0113 28.6157 16.4577C28.9532 15.7725 29.2444 15.0635 29.5271 14.3532C29.7374 13.8279 30.0643 13.5695 30.6571 13.5783L35.4696 13.5841C35.6114 13.5841 35.7554 13.5854 35.8959 13.6097C36.707 13.7484 36.9292 14.0974 36.6783 14.8886C36.2833 16.1317 35.516 17.1671 34.7659 18.2053C33.9619 19.3167 33.1044 20.3893 32.3084 21.5056C31.5768 22.5261 31.6347 23.0399 32.543 23.926Z" fill="white"/>
</g>
<defs>
<clipPath id="clip0">
<rect width="43.1818" height="43.1818" fill="white"/>
</clipPath>
</defs>
</svg>
